<?xml version="1.0" standalone="no"?>
<!DOCTYPE svg PUBLIC "-//W3C//DTD SVG 20010904//EN"
 "http://www.w3.org/TR/2001/REC-SVG-20010904/DTD/svg10.dtd">
<svg version="1.0" xmlns="http://www.w3.org/2000/svg"
 width="260.000000pt" height="260.000000pt" viewBox="0 0 260.000000 260.000000"
 preserveAspectRatio="xMidYMid meet">
<metadata>
Created by potrace 1.11, written by Peter Selinger 2001-2013
</metadata>
<g transform="translate(0.000000,260.000000) scale(0.100000,-0.100000)"
fill="#000000" stroke="none">
<path d="M0 2470 l0 -130 1300 0 1300 0 0 130 0 130 -1300 0 -1300 0 0 -130z"/>
<path d="M715 2156 c-131 -28 -211 -59 -314 -123 -181 -113 -315 -298 -374
-518 -31 -115 -30 -316 1 -433 86 -319 329 -558 642 -631 l81 -19 14 22 c7 11
51 87 98 167 l84 146 -81 6 c-283 21 -488 238 -488 517 0 228 143 420 369 497
41 14 114 17 476 20 235 3 427 2 427 -2 0 -4 -43 -82 -97 -173 -159 -276 -478
-825 -589 -1015 -57 -98 -104 -182 -104 -187 0 -6 81 -10 208 -10 l209 0 210
363 c116 199 297 512 403 695 l194 332 258 0 258 0 0 185 0 185 -887 -1 c-887
0 -888 0 -998 -23z"/>
<path d="M2132 1718 c-26 -34 -749 -1288 -744 -1293 3 -3 277 -5 609 -5 l603
0 0 185 0 185 -291 0 -291 0 28 48 c102 173 514 886 514 889 0 1 -94 3 -209 3
-155 0 -211 -3 -219 -12z"/>
<path d="M37 253 c-4 -3 -7 -62 -7 -130 l0 -123 1285 0 1285 0 0 130 0 130
-1278 0 c-703 0 -1282 -3 -1285 -7z"/>
</g>
</svg>
